<?xml version="1.0" standalone="no"?><!DOCTYPE svg PUBLIC "-//W3C//DTD SVG 1.1//EN" "http://www.w3.org/Graphics/SVG/1.1/DTD/svg11.dtd"><svg t="1635673372559" class="icon" viewBox="0 0 1024 1024" version="1.1" xmlns="http://www.w3.org/2000/svg" p-id="6576" xmlns:xlink="http://www.w3.org/1999/xlink" width="200" height="200"><defs><style type="text/css"></style></defs><path d="M494.78 540.14l193.38 53.58c13.34 3.7 21.18 17.52 17.48 30.86-3.38 12.18-15.16 19.74-27.34 18.18l-199.06-25.34c-21.66-2.76-36.98-22.54-34.22-44.2s22.54-36.98 44.2-34.22c1.84 0.24 3.84 0.66 5.56 1.14z" fill="#F4AA2C" p-id="6577"></path><path d="M681.44 651.28c-1.4 0-2.8-0.08-4.2-0.28l-199.04-25.34c-26.16-3.34-44.74-27.34-41.4-53.5 1.62-12.68 8.06-23.96 18.16-31.78s22.68-11.26 35.32-9.62c2.1 0.26 4.46 0.74 6.68 1.34l0.04 0.02 193.38 53.58a33.12 33.12 0 0 1 20.14 15.74c4.4 7.76 5.5 16.78 3.12 25.36-4.04 14.54-17.46 24.48-32.2 24.48z m-197.28-104.28c-6.88 0-13.52 2.26-19.04 6.54-6.6 5.1-10.8 12.46-11.86 20.74-2.18 17.08 9.94 32.74 27.02 34.9l199.06 25.34c8.18 1.06 16.06-4.18 18.28-12.16 1.2-4.32 0.64-8.84-1.56-12.74a16.648 16.648 0 0 0-10.12-7.9l-193.34-53.58c-1.48-0.4-3.08-0.72-4.42-0.9-1.34-0.16-2.68-0.24-4.02-0.24z" fill="#0B0606" p-id="6578"></path><path d="M700.86 573.14l197.32 36.42c13.62 2.52 22.62 15.6 20.12 29.22-2.3 12.42-13.38 21-25.64 20.52l-200.5-7.8c-21.82-0.84-38.8-19.22-37.96-41.02s19.22-38.8 41.02-37.96c1.84 0.08 3.88 0.32 5.64 0.62z" fill="#F4AA2C" p-id="6579"></path><path d="M893.64 667.64c-0.44 0-0.88-0.02-1.3-0.02l-200.5-7.8c-26.36-1.02-46.96-23.3-45.94-49.66 1.02-26.36 23.38-46.86 49.66-45.94 2.12 0.08 4.52 0.36 6.76 0.74l0.06 0.02 197.32 36.42c8.76 1.62 16.38 6.56 21.44 13.9 5.06 7.34 6.96 16.22 5.32 25-2.9 15.78-16.88 27.34-32.82 27.34z m-199.96-86.84c-16.66 0-30.52 13.22-31.18 30-0.32 8.34 2.62 16.3 8.28 22.4 5.66 6.12 13.36 9.66 21.7 10l200.52 7.8c8.1 0.36 15.64-5.58 17.14-13.72 1.68-9.1-4.36-17.86-13.46-19.54l-197.3-36.42c-1.5-0.26-3.14-0.44-4.48-0.5-0.42-0.02-0.82-0.02-1.22-0.02z" fill="#0B0606" p-id="6580"></path><path d="M509.1 397.36l-115.94 102.2c-8.34 7.36-21.08 6.56-28.44-1.8-6.84-7.76-6.56-19.4 0.22-26.9l104.02-114.28c10.66-11.7 28.78-12.56 40.48-1.9s12.56 28.78 1.9 40.48c-0.7 0.76-1.48 1.52-2.24 2.2z" fill="#E74150" p-id="6581"></path><path d="M379.86 512.88c-7.9 0-15.74-3.26-21.38-9.62-9.58-10.86-9.46-27.18 0.28-37.96l104.04-114.32c13.72-15.08 37.14-16.16 52.22-2.46 7.3 6.64 11.58 15.74 12.04 25.6a36.764 36.764 0 0 1-12.48 29.46l-115.92 102.18c-5.4 4.78-12.12 7.12-18.8 7.12z m110.3-157.36c-5.54 0-11.04 2.24-15.06 6.64l-104.02 114.28a11.836 11.836 0 0 0-0.12 15.8c4.32 4.9 11.82 5.36 16.72 1.06l115.94-102.2c0.56-0.48 1.1-1.02 1.6-1.58 7.54-8.28 6.94-21.18-1.36-28.72a20.434 20.434 0 0 0-13.7-5.28z" fill="#0B0606" p-id="6582"></path><path d="M384.98 507.86l-153.48 18.1c-11.06 1.3-21.08-6.6-22.38-17.66-1.22-10.28 5.64-19.68 15.48-22l150.58-34.82c15.42-3.56 30.8 6.04 34.36 21.46 3.56 15.42-6.04 30.8-21.46 34.36-1.02 0.26-2.08 0.44-3.1 0.56z" fill="#F4AA2C" p-id="6583"></path><path d="M229.08 534.4c-6.36 0-12.5-2.12-17.58-6.12-5.98-4.7-9.74-11.46-10.64-19.02-1.7-14.38 7.68-27.74 21.84-31.06l150.6-34.82c19.84-4.6 39.74 7.84 44.34 27.68 4.58 19.86-7.84 39.74-27.68 44.34-1.34 0.3-2.68 0.54-3.98 0.7h-0.02l-153.48 18.1c-1.14 0.14-2.26 0.2-3.4 0.2z m152.56-75.34c-1.52 0-3.04 0.18-4.58 0.52l-150.58 34.82c-5.88 1.38-9.8 6.94-9.1 12.92a11.78 11.78 0 0 0 4.44 7.92c2.48 1.96 5.6 2.84 8.72 2.46L384 499.6c0.74-0.08 1.5-0.22 2.24-0.38 10.9-2.52 17.74-13.46 15.22-24.4-2.18-9.4-10.56-15.76-19.82-15.76z" fill="#0B0606" p-id="6584"></path><path d="M402.42 600.42c-24.34-14.36-32.42-45.72-18.08-70.06l94.84-176.66c14.36-24.34 45.72-32.42 70.06-18.08 24.34 14.36 32.42 45.72 18.08 70.06l-94.84 176.66c-14.36 24.34-45.72 32.44-70.06 18.08z" fill="#E74150" p-id="6585"></path><path d="M428.26 615.8c-10.26 0-20.62-2.66-30.06-8.22-13.68-8.06-23.4-20.98-27.36-36.36-3.98-15.38-1.7-31.38 6.36-45.06l94.66-176.36c16.82-28.54 53.36-37.96 81.6-21.3 13.68 8.06 23.4 20.98 27.36 36.36 3.96 15.38 1.7 31.38-6.36 45.06l-94.66 176.36a59.77 59.77 0 0 1-51.54 29.52z m95.06-278.94c-14.68 0-29 7.54-36.98 21.06l-94.66 176.36c-5.98 10.14-7.6 21.68-4.76 32.76a42.58 42.58 0 0 0 19.72 26.2c20.36 12.02 46.68 5.22 58.68-15.14L560 401.76c5.98-10.14 7.6-21.68 4.74-32.76a42.58 42.58 0 0 0-19.72-26.2 42.606 42.606 0 0 0-21.7-5.94z" fill="#0B0606" p-id="6586"></path><path d="M603.3 303.68m-65.96 0a65.96 65.96 0 1 0 131.92 0 65.96 65.96 0 1 0-131.92 0Z" fill="#F4AA2C" p-id="6587"></path><path d="M603.2 377.96c-9.78 0-19.74-1.94-29.28-6.06-37.6-16.2-55.02-59.98-38.84-97.58 16.2-37.62 59.98-55.04 97.58-38.84 37.6 16.2 55.02 59.98 38.84 97.58-12.08 28.08-39.52 44.9-68.3 44.9z m-22.68-21.32c29.18 12.56 63.16-0.96 75.74-30.14 12.58-29.2-0.96-63.18-30.14-75.76-29.2-12.58-63.16 0.94-75.74 30.14-12.58 29.2 0.94 63.18 30.14 75.76z" fill="#0B0606" p-id="6588"></path><path d="M498.86 398.74l-134.58-75.98a20.142 20.142 0 0 1-7.64-27.46c5.08-9.02 16.16-12.56 25.48-8.62l142.1 60.76c14.54 6.22 21.3 23.06 15.08 37.62-6.22 14.54-23.06 21.3-37.62 15.08-0.96-0.4-1.92-0.88-2.82-1.4z" fill="#E74150" p-id="6589"></path><path d="M512.94 410.78c-4.94 0-9.86-1-14.54-3-1.24-0.52-2.46-1.14-3.62-1.78l-0.02-0.02L360.2 330c-13.66-7.72-18.5-25.12-10.8-38.78 7.12-12.62 22.58-17.86 35.96-12.18l142.12 60.78c9.08 3.88 16.1 11.06 19.78 20.24a36.68 36.68 0 0 1-0.32 28.28 36.73 36.73 0 0 1-20.22 19.78 37.1 37.1 0 0 1-13.78 2.66z m-10-19.28c0.64 0.36 1.32 0.7 2.02 1 5 2.14 10.54 2.2 15.58 0.18 5.04-2.02 9-5.88 11.14-10.88 2.14-5 2.2-10.52 0.18-15.58-2.02-5.04-5.88-9-10.88-11.14l-142.1-60.76c-5.56-2.36-12.02-0.18-14.98 5.06-3.2 5.68-1.2 12.92 4.5 16.14l134.54 75.98z" fill="#0B0606" p-id="6590"></path><path d="M458.86 582.8l-77.3 185.18c-5.34 12.78-20.02 18.82-32.8 13.48-11.66-4.86-17.7-17.52-14.62-29.4l50-194.34c5.44-21.14 26.98-33.86 48.12-28.44 21.14 5.44 33.86 26.98 28.44 48.12-0.5 1.8-1.16 3.74-1.84 5.4z" fill="#F4AA2C" p-id="6591"></path><path d="M358.36 791.7c-4.28 0-8.62-0.82-12.82-2.58-15.22-6.36-23.6-23.18-19.48-39.14l49.98-194.32c3.18-12.38 11-22.76 22-29.26s23.86-8.32 36.24-5.14c12.38 3.18 22.76 11 29.26 22s8.32 23.88 5.14 36.26a52.76 52.76 0 0 1-2.14 6.44l-0.04 0.08-77.3 185.18c-5.32 12.74-17.76 20.48-30.84 20.48z m63.96-255.36c-5.52 0-10.96 1.48-15.82 4.36a30.91 30.91 0 0 0-14.34 19.1l-50 194.34c-2.08 8.02 2.14 16.46 9.78 19.66 8.54 3.56 18.38-0.48 21.94-9.02l77.28-185.14c0.58-1.42 1.1-2.98 1.44-4.28 2.08-8.08 0.88-16.48-3.36-23.66a31.012 31.012 0 0 0-19.1-14.36c-2.58-0.66-5.2-1-7.82-1z" fill="#0B0606" p-id="6592"></path><path d="M405.34 729.74l114.26 164.96c7.88 11.38 5.06 27.02-6.34 34.9-10.38 7.2-24.3 5.46-32.64-3.54l-136.7-146.9c-14.88-15.98-13.98-40.98 2-55.86 15.98-14.88 40.98-13.98 55.86 2 1.26 1.36 2.52 2.98 3.56 4.44z" fill="#F4AA2C" p-id="6593"></path><path d="M499.02 942.32c-9.04 0-18.02-3.62-24.5-10.6l-136.7-146.88c-17.96-19.3-16.88-49.64 2.42-67.6 9.36-8.7 21.62-13.26 34.32-12.78 12.76 0.46 24.58 5.86 33.3 15.22 1.44 1.56 2.96 3.44 4.28 5.3l0.04 0.06L526.44 890c10.48 15.14 6.7 35.98-8.44 46.46a33.632 33.632 0 0 1-18.98 5.86z m-126.18-221.28c-7.62 0-15.26 2.76-21.26 8.34-12.6 11.72-13.3 31.52-1.58 44.12l136.7 146.9c5.64 6.08 15.02 7.08 21.82 2.36 7.6-5.26 9.5-15.74 4.24-23.34l-114.24-164.92c-0.88-1.24-1.9-2.52-2.84-3.52-6.14-6.6-14.48-9.94-22.84-9.94z" fill="#0B0606" p-id="6594"></path><path d="M288.8 173.16c72.56-18.3 147.88-24.6 222.54-20.02 64.4 3.96 129.1 15.86 189.42 39.14 41.7 16.08 88.32 39.32 114.38 77.28 9.52 13.86 15.5 29.44 14.88 45.94-0.66 16.96-8.98 33.76-20 47.12-15.96 19.38-36.88 35.08-57.42 49.28-22.94 15.86-47.18 29.78-72.04 42.36-52.92 26.76-108.68 47.5-164.8 66.48-54.3 18.36-109.2 34.82-163.56 52.98-45.66 15.24-91.82 31.32-134.18 54.44-33.22 18.14-65.12 41.94-79.28 78.3-9.62 24.72-7.72 51.82 5.38 74.9 14.66 25.8 39.86 44.6 65.34 58.72 15.52 8.6 31.86 15.7 48.48 21.92 10.02 3.76 14.36-12.3 4.42-16.02-47.36-17.78-122.52-55.3-112.5-117.64 6.28-39.02 38.6-64.3 71.06-82.78 41.56-23.68 87.36-39.6 132.56-54.78 54.22-18.2 109.04-34.62 163.24-52.86 56.42-19 112.5-39.76 165.94-66.18 25.58-12.64 50.56-26.66 74.2-42.66 21.36-14.46 43.06-30.4 60.46-49.58 13.2-14.56 24.32-32.1 27.88-51.7 3.32-18.24 0.26-36.3-7.74-52.92-19.06-39.64-60.9-66.08-99.2-84.42-56.42-27.04-118.26-41.86-180.16-49.6-72.78-9.1-146.96-7.46-219.28 4.8-18.3 3.1-36.44 6.94-54.44 11.48-10.36 2.6-5.96 18.64 4.42 16.02z" fill="#0B0606" p-id="6595"></path><path d="M349.06 297.3l-26.88-152.18c-1.94-10.96 5.38-21.42 16.34-23.36 10.2-1.8 19.98 4.5 22.84 14.18l43.42 148.32c4.44 15.18-4.26 31.1-19.44 35.54-15.18 4.44-31.1-4.26-35.54-19.44-0.32-1-0.56-2.04-0.74-3.06z" fill="#F4AA2C" p-id="6596"></path><path d="M377.22 329.3a36.8 36.8 0 0 1-17.7-4.56c-8.66-4.74-14.96-12.56-17.72-22.04-0.38-1.28-0.68-2.62-0.92-3.9l-0.02-0.04L314 146.56c-2.72-15.46 7.62-30.26 23.08-32.98 14.3-2.52 28.14 6.08 32.26 20l43.42 148.34c2.78 9.48 1.7 19.46-3.04 28.12a36.744 36.744 0 0 1-22.04 17.74c-3.46 1.02-6.98 1.52-10.46 1.52z m-19.98-33.46a20.206 20.206 0 0 0 10.26 14.32c4.78 2.62 10.28 3.2 15.48 1.68 5.2-1.52 9.52-5 12.12-9.76s3.2-10.26 1.68-15.48l-43.42-148.32c-1.72-5.8-7.48-9.4-13.42-8.34a11.78 11.78 0 0 0-7.64 4.88 11.694 11.694 0 0 0-1.96 8.84l26.9 152.18z" fill="#0B0606" p-id="6597"></path></svg>